<svg width="158" height="46" viewBox="0 0 158 46" fill="none" xmlns="http://www.w3.org/2000/svg">
<path d="M11.157 0.00741134C10.0444 0.0535588 8.86294 0.318289 7.69565 0.537662L14.4145 7.02281L12.0873 7.04139C8.92896 7.05987 3.94894 7.64951 0.953556 9.2453L4.36782 14.3419L0 16.4267V22.0175L5.00378 24.6183L0 28.5785V31.7671C3.03377 31.6453 6.51867 31.83 9.5834 30.887L13.0134 29.8338L10.6665 32.3621C8.64952 34.5361 7.46449 37.8102 5.2116 41.0296C8.64243 40.7931 12.0229 40.2737 15.6191 38.4792L17.3422 37.6211L16.2943 45.2423C19.1255 44.0377 21.8962 42.3842 23.9471 40.3948C26.3858 38.0292 27.7868 35.4056 27.5338 33.2099L27.5258 33.1357C25.5381 31.8821 24.0574 30.0553 23.3073 27.7819C22.4027 25.0394 22.6765 21.6226 24.0216 17.787C21.1825 17.3878 19.0182 16.3406 17.8602 14.8117C16.5345 13.061 16.3311 10.9321 17.0282 9.17732C17.7252 7.42253 19.4247 5.99887 21.6984 5.87683C23.9087 5.75875 26.4807 6.86826 29.2215 9.44432C30.4437 9.85046 31.5578 10.2382 32.5695 10.6242C32.8312 8.51001 32.4125 6.86589 31.4505 5.39678C30.5463 4.01582 28.9543 2.78505 27.0316 1.58423L27.4907 5.82229L25.7247 4.73678C21.7457 2.29235 16.0047 -0.185973 11.157 0.0222338L11.1572 0L11.157 0.00741134ZM21.9502 7.71483C21.9033 7.71562 21.8571 7.71483 21.8115 7.71483H21.8113C20.3555 7.7924 19.3873 8.61455 18.9151 9.80332C18.4428 10.9921 18.5664 12.5063 19.5075 13.7491C20.4488 14.9918 22.2092 16.0375 25.2648 16.1982L26.6189 16.2663L26.1519 17.435C24.5567 21.4332 24.4056 24.7404 25.2297 27.2389C26.0533 29.7357 27.8144 31.4677 30.3157 32.4327H30.3197L41.9948 36.2345C42.6023 35.0586 43.2498 33.8814 43.9288 32.7058C43.3916 32.922 42.7985 33.0428 42.1742 33.0428C39.7529 33.0428 37.7897 31.2382 37.7897 29.0128C37.7897 26.7877 39.7529 24.9831 42.1742 24.9831C44.3955 24.9831 46.2272 26.5022 46.5149 28.4713C47.6617 26.6865 48.8679 24.9139 50.1145 23.1665L39.0163 17.9908L38.5061 17.4244C38.0835 16.0848 37.268 15.12 35.6687 14.1314C34.0693 13.143 31.687 12.1976 28.3809 11.1053L28.1573 11.0295L27.9928 10.8707C25.4895 8.44656 23.4018 7.68113 21.9502 7.70623V7.71483ZM34.7488 16.6014C35.6382 16.6014 36.3247 17.2326 36.3247 18.0498C36.3247 18.8674 35.638 19.5012 34.7487 19.5012C33.8596 19.5012 33.1696 18.8674 33.1696 18.0499C33.1696 17.2327 33.8595 16.6017 34.7487 16.6017L34.7488 16.6014Z" fill="#010103"/>
<path d="M52.321 32.99C52.1075 32.99 51.8987 32.9737 51.6946 32.9412C51.4904 32.9087 51.2978 32.86 51.1169 32.7951C50.9359 32.7255 50.7735 32.6419 50.6296 32.5445C50.56 32.4934 50.5113 32.4354 50.4835 32.3705C50.4603 32.3055 50.4533 32.2429 50.4626 32.1825C50.4765 32.1176 50.5043 32.0619 50.5461 32.0155C50.5879 31.9691 50.6389 31.9413 50.6992 31.932C50.7596 31.9181 50.8268 31.9366 50.9011 31.9877C51.1099 32.1222 51.3303 32.222 51.5623 32.287C51.7943 32.3473 52.0472 32.3774 52.321 32.3774C52.7154 32.3774 53.0054 32.3078 53.191 32.1686C53.3813 32.0248 53.4764 31.8392 53.4764 31.6118C53.4764 31.4262 53.4091 31.28 53.2746 31.1733C53.14 31.0619 52.9149 30.9738 52.5994 30.9088L51.8547 30.7557C51.4138 30.6629 51.0844 30.5097 50.8663 30.2963C50.6528 30.0828 50.5461 29.7951 50.5461 29.4332C50.5461 29.2151 50.5902 29.0156 50.6784 28.8346C50.7712 28.6537 50.8988 28.4982 51.0612 28.3683C51.2236 28.2337 51.4185 28.1316 51.6458 28.062C51.8732 27.9924 52.1215 27.9576 52.3906 27.9576C52.6783 27.9576 52.9474 27.9947 53.198 28.069C53.4532 28.1432 53.6806 28.2569 53.8801 28.41C53.9404 28.4518 53.9799 28.5052 53.9984 28.5701C54.0216 28.6304 54.0263 28.6908 54.0124 28.7511C54.0031 28.8114 53.9776 28.8625 53.9358 28.9042C53.894 28.946 53.8407 28.9715 53.7757 28.9808C53.7107 28.9854 53.6388 28.9622 53.5599 28.9112C53.379 28.7905 53.1934 28.7047 53.0031 28.6537C52.8175 28.598 52.611 28.5701 52.3836 28.5701C52.1563 28.5701 51.9567 28.6049 51.785 28.6745C51.618 28.7441 51.4881 28.8416 51.3953 28.9669C51.3071 29.0922 51.263 29.2406 51.263 29.4123C51.263 29.6072 51.3257 29.7627 51.451 29.8787C51.5762 29.9947 51.785 30.0828 52.0774 30.1432L52.8152 30.2963C53.2792 30.3937 53.6249 30.5445 53.8523 30.7487C54.0796 30.9529 54.1933 31.2243 54.1933 31.5631C54.1933 31.7812 54.1492 31.9784 54.0611 32.1547C53.9729 32.3264 53.8476 32.4749 53.6852 32.6002C53.5228 32.7255 53.3256 32.8229 53.0936 32.8925C52.8662 32.9575 52.6087 32.99 52.321 32.99ZM55.2866 34.2289C55.1752 34.2289 55.0894 34.1987 55.0291 34.1384C54.9687 34.0781 54.9386 33.9899 54.9386 33.8739V29.8369C54.9386 29.7209 54.9687 29.6327 55.0291 29.5724C55.0894 29.5121 55.1729 29.4819 55.2796 29.4819C55.391 29.4819 55.4768 29.5121 55.5372 29.5724C55.5975 29.6327 55.6277 29.7209 55.6277 29.8369V30.4425L55.5511 30.2963C55.6253 30.0457 55.7715 29.8462 55.9896 29.6977C56.2077 29.5446 56.4652 29.468 56.7622 29.468C57.0638 29.468 57.326 29.5399 57.5487 29.6838C57.7761 29.8276 57.9501 30.0295 58.0707 30.2893C58.196 30.5492 58.2587 30.8624 58.2587 31.229C58.2587 31.5863 58.196 31.8995 58.0707 32.1686C57.9501 32.4331 57.7784 32.6373 57.5557 32.7811C57.3329 32.9203 57.0684 32.99 56.7622 32.99C56.4699 32.99 56.2146 32.9157 55.9966 32.7672C55.7785 32.6187 55.6323 32.4215 55.558 32.1756H55.6416V33.8739C55.6416 33.9899 55.6091 34.0781 55.5441 34.1384C55.4838 34.1987 55.398 34.2289 55.2866 34.2289ZM56.5882 32.447C56.7831 32.447 56.9524 32.4006 57.0963 32.3078C57.2401 32.215 57.3515 32.0781 57.4304 31.8972C57.5093 31.7162 57.5487 31.4935 57.5487 31.229C57.5487 30.8299 57.4605 30.5283 57.2842 30.3241C57.1125 30.12 56.8805 30.0179 56.5882 30.0179C56.3979 30.0179 56.2286 30.0643 56.0801 30.1571C55.9362 30.2453 55.8249 30.3798 55.746 30.5608C55.6671 30.7418 55.6277 30.9645 55.6277 31.229C55.6277 31.6234 55.7158 31.925 55.8921 32.1338C56.0685 32.3426 56.3005 32.447 56.5882 32.447ZM60.5265 32.99C60.1831 32.99 59.8861 32.918 59.6356 32.7742C59.3896 32.6303 59.1971 32.4262 59.0579 32.1617C58.9186 31.8972 58.849 31.5863 58.849 31.229C58.849 30.9552 58.8885 30.7116 58.9674 30.4981C59.0463 30.2847 59.1576 30.1014 59.3015 29.9483C59.45 29.7905 59.6263 29.6722 59.8305 29.5933C60.0393 29.5098 60.2713 29.468 60.5265 29.468C60.8652 29.468 61.1576 29.5399 61.4035 29.6838C61.6541 29.8276 61.849 30.0318 61.9882 30.2963C62.1274 30.5561 62.197 30.867 62.197 31.229C62.197 31.4981 62.1575 31.7417 62.0786 31.9598C61.9998 32.1779 61.8861 32.3635 61.7376 32.5166C61.5937 32.6698 61.4174 32.7881 61.2086 32.8716C61.0044 32.9505 60.7771 32.99 60.5265 32.99ZM60.5265 32.447C60.7167 32.447 60.8838 32.4006 61.0276 32.3078C61.1715 32.215 61.2828 32.0781 61.3617 31.8972C61.4453 31.7162 61.487 31.4935 61.487 31.229C61.487 30.8299 61.3989 30.5283 61.2225 30.3241C61.0462 30.12 60.8142 30.0179 60.5265 30.0179C60.3316 30.0179 60.1622 30.0643 60.0184 30.1571C59.8745 30.2453 59.7609 30.3798 59.6773 30.5608C59.5984 30.7418 59.559 30.9645 59.559 31.229C59.559 31.6234 59.6472 31.925 59.8235 32.1338C59.9998 32.3426 60.2342 32.447 60.5265 32.447ZM63.3415 32.976C63.2255 32.976 63.1373 32.9459 63.077 32.8855C63.0166 32.8206 62.9865 32.7324 62.9865 32.6211V29.8369C62.9865 29.7209 63.0166 29.6327 63.077 29.5724C63.1373 29.5121 63.2208 29.4819 63.3275 29.4819C63.4389 29.4819 63.5224 29.5121 63.5781 29.5724C63.6384 29.6327 63.6686 29.7209 63.6686 29.8369V30.345H63.599C63.6732 30.0666 63.8101 29.8555 64.0097 29.7116C64.2092 29.5678 64.4644 29.4843 64.7753 29.4611C64.8588 29.4564 64.9238 29.4773 64.9702 29.5237C65.0212 29.5701 65.0491 29.642 65.0537 29.7395C65.063 29.8369 65.0421 29.9158 64.9911 29.9761C64.94 30.0318 64.8611 30.0643 64.7544 30.0736L64.6222 30.0875C64.3206 30.1153 64.0909 30.2104 63.9331 30.3729C63.7753 30.5353 63.6964 30.758 63.6964 31.0411V32.6211C63.6964 32.7324 63.6663 32.8206 63.606 32.8855C63.5503 32.9459 63.4621 32.976 63.3415 32.976ZM67.2211 32.99C66.9427 32.99 66.7084 32.9412 66.5181 32.8438C66.3279 32.7463 66.1863 32.6025 66.0935 32.4122C66.0007 32.222 65.9543 31.99 65.9543 31.7162V30.0736H65.5367C65.4439 30.0736 65.372 30.0504 65.3209 30.004C65.2699 29.9529 65.2444 29.8856 65.2444 29.8021C65.2444 29.7139 65.2699 29.6467 65.3209 29.6003C65.372 29.5539 65.4439 29.5307 65.5367 29.5307H65.9543V28.8137C65.9543 28.6977 65.9845 28.6096 66.0448 28.5492C66.1098 28.4889 66.1979 28.4588 66.3093 28.4588C66.4207 28.4588 66.5065 28.4889 66.5668 28.5492C66.6271 28.6096 66.6573 28.6977 66.6573 28.8137V29.5307H67.4717C67.5645 29.5307 67.6364 29.5539 67.6874 29.6003C67.7385 29.6467 67.764 29.7139 67.764 29.8021C67.764 29.8856 67.7385 29.9529 67.6874 30.004C67.6364 30.0504 67.5645 30.0736 67.4717 30.0736H66.6573V31.6605C66.6573 31.9065 66.7084 32.0921 66.8104 32.2174C66.9172 32.3426 67.0889 32.4053 67.3255 32.4053C67.409 32.4053 67.481 32.3983 67.5413 32.3844C67.6062 32.3658 67.6596 32.3542 67.7014 32.3496C67.7524 32.3496 67.7942 32.3682 67.8266 32.4053C67.8591 32.4378 67.8754 32.5027 67.8754 32.6002C67.8754 32.6698 67.8615 32.7347 67.8336 32.7951C67.8104 32.8554 67.7663 32.8948 67.7014 32.9134C67.6457 32.9319 67.5691 32.9482 67.4717 32.9621C67.3789 32.9807 67.2953 32.99 67.2211 32.99ZM70.6171 32.9273C70.4918 32.9273 70.3944 32.8948 70.3248 32.8299C70.2598 32.7603 70.2273 32.6628 70.2273 32.5375V28.41C70.2273 28.2848 70.2598 28.1896 70.3248 28.1247C70.3944 28.0551 70.4918 28.0203 70.6171 28.0203H72.2737C72.6124 28.0203 72.9001 28.0713 73.1367 28.1734C73.378 28.2755 73.5613 28.4216 73.6866 28.6119C73.8165 28.8021 73.8815 29.0318 73.8815 29.301C73.8815 29.5979 73.7933 29.8485 73.617 30.0527C73.4407 30.2569 73.2017 30.3937 72.9001 30.4633V30.3589C73.2435 30.4053 73.5126 30.5353 73.7075 30.7487C73.9024 30.9575 73.9998 31.2313 73.9998 31.57C73.9998 32.0062 73.856 32.3426 73.5683 32.5793C73.2806 32.8113 72.8769 32.9273 72.3572 32.9273H70.6171ZM70.9234 32.3705H72.2737C72.6217 32.3705 72.8792 32.3032 73.0463 32.1686C73.2133 32.0294 73.2968 31.8206 73.2968 31.5422C73.2968 31.2638 73.2133 31.0573 73.0463 30.9227C72.8792 30.7882 72.6217 30.7209 72.2737 30.7209H70.9234V32.3705ZM70.9234 30.164H72.1623C72.4964 30.164 72.7493 30.0968 72.921 29.9622C73.0927 29.8276 73.1785 29.6304 73.1785 29.3706C73.1785 29.1107 73.0927 28.9135 72.921 28.7789C72.7493 28.6444 72.4964 28.5771 72.1623 28.5771H70.9234V30.164ZM76.4891 32.99C76.1179 32.99 75.7977 32.9203 75.5286 32.7811C75.2641 32.6373 75.0576 32.4354 74.9091 32.1756C74.7653 31.9111 74.6934 31.5979 74.6934 31.2359C74.6934 30.8833 74.7653 30.5747 74.9091 30.3102C75.053 30.0457 75.2502 29.8392 75.5008 29.6907C75.7513 29.5423 76.0367 29.468 76.3569 29.468C76.5935 29.468 76.8047 29.5075 76.9903 29.5863C77.1759 29.6606 77.3337 29.7719 77.4636 29.9204C77.5981 30.0643 77.6979 30.2406 77.7629 30.4494C77.8325 30.6582 77.8673 30.8926 77.8673 31.1524C77.8673 31.2313 77.8441 31.2916 77.7977 31.3334C77.7513 31.3705 77.6817 31.3891 77.5889 31.3891H75.2502V30.9575H77.394L77.2757 31.055C77.2757 30.823 77.2409 30.6258 77.1712 30.4633C77.1063 30.3009 77.0065 30.178 76.872 30.0944C76.742 30.0063 76.5796 29.9622 76.3847 29.9622C76.1666 29.9622 75.981 30.0132 75.8279 30.1153C75.6794 30.2174 75.5657 30.3589 75.4868 30.5399C75.408 30.7209 75.3685 30.932 75.3685 31.1733V31.2151C75.3685 31.6234 75.4636 31.932 75.6539 32.1408C75.8488 32.345 76.1295 32.447 76.4961 32.447C76.6353 32.447 76.7815 32.4285 76.9346 32.3914C77.0924 32.3542 77.2409 32.2916 77.3801 32.2034C77.4589 32.157 77.5285 32.1361 77.5889 32.1408C77.6538 32.1454 77.7049 32.1663 77.742 32.2034C77.7838 32.2406 77.8093 32.287 77.8186 32.3426C77.8278 32.3983 77.8186 32.4563 77.7907 32.5166C77.7629 32.5723 77.7142 32.6234 77.6446 32.6698C77.4868 32.7765 77.3035 32.8577 77.0947 32.9134C76.8859 32.9644 76.684 32.99 76.4891 32.99ZM79.3865 34.2289C79.303 34.2289 79.2334 34.2057 79.1777 34.1593C79.1267 34.1175 79.0965 34.0595 79.0872 33.9853C79.0826 33.9157 79.0965 33.8391 79.129 33.7556L79.6023 32.6907V32.99L78.3007 29.9622C78.2682 29.8787 78.2566 29.7998 78.2659 29.7255C78.2752 29.6513 78.31 29.5933 78.3703 29.5515C78.4307 29.5051 78.5119 29.4819 78.6139 29.4819C78.7021 29.4819 78.7717 29.5028 78.8228 29.5446C78.8738 29.5863 78.9202 29.6583 78.962 29.7603L80.013 32.3566H79.8181L80.883 29.7603C80.9248 29.6536 80.9735 29.5817 81.0292 29.5446C81.0849 29.5028 81.1614 29.4819 81.2589 29.4819C81.3424 29.4819 81.4074 29.5051 81.4538 29.5515C81.5048 29.5933 81.535 29.6513 81.5443 29.7255C81.5582 29.7951 81.5466 29.8717 81.5095 29.9552L79.7694 33.9574C79.723 34.0642 79.6696 34.1361 79.6093 34.1732C79.5536 34.2103 79.4793 34.2289 79.3865 34.2289ZM83.6166 32.99C83.2733 32.99 82.9763 32.918 82.7257 32.7742C82.4798 32.6303 82.2872 32.4262 82.148 32.1617C82.0088 31.8972 81.9392 31.5863 81.9392 31.229C81.9392 30.9552 81.9786 30.7116 82.0575 30.4981C82.1364 30.2847 82.2478 30.1014 82.3916 29.9483C82.5401 29.7905 82.7164 29.6722 82.9206 29.5933C83.1294 29.5098 83.3614 29.468 83.6166 29.468C83.9554 29.468 84.2477 29.5399 84.4936 29.6838C84.7442 29.8276 84.9391 30.0318 85.0783 30.2963C85.2175 30.5561 85.2871 30.867 85.2871 31.229C85.2871 31.4981 85.2477 31.7417 85.1688 31.9598C85.0899 32.1779 84.9762 32.3635 84.8277 32.5166C84.6839 32.6698 84.5076 32.7881 84.2988 32.8716C84.0946 32.9505 83.8672 32.99 83.6166 32.99ZM83.6166 32.447C83.8069 32.447 83.9739 32.4006 84.1178 32.3078C84.2616 32.215 84.373 32.0781 84.4519 31.8972C84.5354 31.7162 84.5772 31.4935 84.5772 31.229C84.5772 30.8299 84.489 30.5283 84.3127 30.3241C84.1364 30.12 83.9043 30.0179 83.6166 30.0179C83.4218 30.0179 83.2524 30.0643 83.1085 30.1571C82.9647 30.2453 82.851 30.3798 82.7675 30.5608C82.6886 30.7418 82.6492 30.9645 82.6492 31.229C82.6492 31.6234 82.7373 31.925 82.9136 32.1338C83.09 32.3426 83.3243 32.447 83.6166 32.447ZM86.4247 32.976C86.3133 32.976 86.2274 32.9459 86.1671 32.8855C86.1068 32.8206 86.0766 32.7324 86.0766 32.6211V29.8369C86.0766 29.7209 86.1068 29.6327 86.1671 29.5724C86.2274 29.5121 86.311 29.4819 86.4177 29.4819C86.5291 29.4819 86.6126 29.5121 86.6683 29.5724C86.7286 29.6327 86.7588 29.7209 86.7588 29.8369V30.3798L86.6822 30.2545C86.7843 29.9947 86.9444 29.7998 87.1625 29.6699C87.3805 29.5353 87.6311 29.468 87.9142 29.468C88.1833 29.468 88.406 29.5191 88.5824 29.6211C88.7633 29.7186 88.8979 29.8694 88.9861 30.0736C89.0742 30.2731 89.1183 30.526 89.1183 30.8322V32.6211C89.1183 32.7324 89.0882 32.8206 89.0278 32.8855C88.9675 32.9459 88.8817 32.976 88.7703 32.976C88.6543 32.976 88.5661 32.9459 88.5058 32.8855C88.4455 32.8206 88.4153 32.7324 88.4153 32.6211V30.874C88.4153 30.5817 88.3573 30.3682 88.2413 30.2337C88.1299 30.0991 87.9536 30.0318 87.7123 30.0318C87.4293 30.0318 87.2019 30.12 87.0302 30.2963C86.8632 30.4726 86.7796 30.7093 86.7796 31.0062V32.6211C86.7796 32.8577 86.6613 32.976 86.4247 32.976ZM91.3816 32.99C91.0847 32.99 90.8225 32.9203 90.5951 32.7811C90.3724 32.6373 90.1984 32.4331 90.0731 32.1686C89.9478 31.8995 89.8852 31.5863 89.8852 31.229C89.8852 30.8624 89.9478 30.5492 90.0731 30.2893C90.1984 30.0295 90.3724 29.8276 90.5951 29.6838C90.8225 29.5399 91.0847 29.468 91.3816 29.468C91.6786 29.468 91.9338 29.5423 92.1473 29.6907C92.3654 29.8346 92.5115 30.0295 92.5858 30.2754H92.5092V28.3265C92.5092 28.2105 92.5394 28.1223 92.5997 28.062C92.66 28.0017 92.7459 27.9715 92.8572 27.9715C92.9686 27.9715 93.0544 28.0017 93.1148 28.062C93.1797 28.1223 93.2122 28.2105 93.2122 28.3265V32.6211C93.2122 32.7324 93.182 32.8206 93.1217 32.8855C93.0614 32.9459 92.9755 32.976 92.8642 32.976C92.7528 32.976 92.667 32.9459 92.6066 32.8855C92.5463 32.8206 92.5162 32.7324 92.5162 32.6211V32.0085L92.5927 32.1617C92.5185 32.4122 92.3723 32.6141 92.1542 32.7672C91.9408 32.9157 91.6832 32.99 91.3816 32.99ZM91.5626 32.447C91.7528 32.447 91.9199 32.4006 92.0637 32.3078C92.2076 32.215 92.319 32.0781 92.3978 31.8972C92.4814 31.7162 92.5231 31.4935 92.5231 31.229C92.5231 30.8299 92.435 30.5283 92.2586 30.3241C92.0823 30.12 91.8503 30.0179 91.5626 30.0179C91.3677 30.0179 91.1983 30.0643 91.0545 30.1571C90.9106 30.2453 90.797 30.3798 90.7134 30.5608C90.6345 30.7418 90.5951 30.9645 90.5951 31.229C90.5951 31.6234 90.6833 31.925 90.8596 32.1338C91.0359 32.3426 91.2703 32.447 91.5626 32.447ZM97.6494 32.976C97.5334 32.976 97.4429 32.9435 97.3779 32.8786C97.3176 32.8136 97.2874 32.7208 97.2874 32.6002V30.3937L97.4475 30.8531L95.7283 28.4657C95.6773 28.3961 95.6541 28.3242 95.6587 28.2499C95.6633 28.1711 95.6935 28.1061 95.7492 28.0551C95.8095 27.9994 95.8884 27.9715 95.9858 27.9715C96.0601 27.9715 96.1274 27.9901 96.1877 28.0272C96.2527 28.0643 96.313 28.1223 96.3687 28.2012L97.7468 30.1153H97.5798L98.9579 28.2012C99.0182 28.1177 99.0762 28.0597 99.1319 28.0272C99.1876 27.9901 99.2572 27.9715 99.3407 27.9715C99.4382 27.9715 99.5124 27.9971 99.5635 28.0481C99.6191 28.0945 99.647 28.1571 99.647 28.236C99.6516 28.3103 99.6238 28.3892 99.5635 28.4727L97.8582 30.8531L98.0043 30.3937V32.6002C98.0043 32.8507 97.886 32.976 97.6494 32.976ZM101.167 32.99C100.824 32.99 100.527 32.918 100.276 32.7742C100.03 32.6303 99.8376 32.4262 99.6984 32.1617C99.5592 31.8972 99.4896 31.5863 99.4896 31.229C99.4896 30.9552 99.5291 30.7116 99.6079 30.4981C99.6868 30.2847 99.7982 30.1014 99.942 29.9483C100.091 29.7905 100.267 29.6722 100.471 29.5933C100.68 29.5098 100.912 29.468 101.167 29.468C101.506 29.468 101.798 29.5399 102.044 29.6838C102.295 29.8276 102.49 30.0318 102.629 30.2963C102.768 30.5561 102.838 30.867 102.838 31.229C102.838 31.4981 102.798 31.7417 102.719 31.9598C102.64 32.1779 102.527 32.3635 102.378 32.5166C102.234 32.6698 102.058 32.7881 101.849 32.8716C101.645 32.9505 101.418 32.99 101.167 32.99ZM101.167 32.447C101.357 32.447 101.524 32.4006 101.668 32.3078C101.812 32.215 101.923 32.0781 102.002 31.8972C102.086 31.7162 102.128 31.4935 102.128 31.229C102.128 30.8299 102.039 30.5283 101.863 30.3241C101.687 30.12 101.455 30.0179 101.167 30.0179C100.972 30.0179 100.803 30.0643 100.659 30.1571C100.515 30.2453 100.401 30.3798 100.318 30.5608C100.239 30.7418 100.2 30.9645 100.2 31.229C100.2 31.6234 100.288 31.925 100.464 32.1338C100.64 32.3426 100.875 32.447 101.167 32.447ZM104.838 32.99C104.564 32.99 104.335 32.9389 104.149 32.8368C103.968 32.7347 103.831 32.5839 103.738 32.3844C103.65 32.1802 103.606 31.925 103.606 31.6188V29.8369C103.606 29.7163 103.636 29.6281 103.697 29.5724C103.757 29.5121 103.843 29.4819 103.954 29.4819C104.066 29.4819 104.151 29.5121 104.212 29.5724C104.277 29.6281 104.309 29.7163 104.309 29.8369V31.6257C104.309 31.8995 104.365 32.1013 104.476 32.2313C104.588 32.3612 104.764 32.4262 105.005 32.4262C105.27 32.4262 105.483 32.338 105.646 32.1617C105.813 31.9807 105.896 31.744 105.896 31.4517V29.8369C105.896 29.7163 105.926 29.6281 105.987 29.5724C106.047 29.5121 106.135 29.4819 106.251 29.4819C106.362 29.4819 106.448 29.5121 106.509 29.5724C106.569 29.6281 106.599 29.7163 106.599 29.8369V32.6211C106.599 32.8577 106.485 32.976 106.258 32.976C106.151 32.976 106.068 32.9459 106.008 32.8855C105.947 32.8206 105.917 32.7324 105.917 32.6211V32.0294L106.008 32.1825C105.915 32.4424 105.766 32.6419 105.562 32.7811C105.358 32.9203 105.117 32.99 104.838 32.99ZM107.945 32.976C107.829 32.976 107.741 32.9459 107.68 32.8855C107.62 32.8206 107.59 32.7324 107.59 32.6211V29.8369C107.59 29.7209 107.62 29.6327 107.68 29.5724C107.741 29.5121 107.824 29.4819 107.931 29.4819C108.042 29.4819 108.126 29.5121 108.181 29.5724C108.242 29.6327 108.272 29.7209 108.272 29.8369V30.345H108.202C108.277 30.0666 108.413 29.8555 108.613 29.7116C108.813 29.5678 109.068 29.4843 109.379 29.4611C109.462 29.4564 109.527 29.4773 109.574 29.5237C109.625 29.5701 109.652 29.642 109.657 29.7395C109.666 29.8369 109.645 29.9158 109.594 29.9761C109.543 30.0318 109.464 30.0643 109.358 30.0736L109.226 30.0875C108.924 30.1153 108.694 30.2104 108.536 30.3729C108.379 30.5353 108.3 30.758 108.3 31.0411V32.6211C108.3 32.7324 108.27 32.8206 108.209 32.8855C108.154 32.9459 108.065 32.976 107.945 32.976ZM112.46 32.976C112.344 32.976 112.254 32.9435 112.189 32.8786C112.128 32.8136 112.098 32.7231 112.098 32.6071V28.3404C112.098 28.2198 112.128 28.1293 112.189 28.069C112.254 28.004 112.344 27.9715 112.46 27.9715C112.576 27.9715 112.664 28.004 112.725 28.069C112.79 28.1293 112.822 28.2198 112.822 28.3404V32.6071C112.822 32.7231 112.792 32.8136 112.732 32.8786C112.671 32.9435 112.581 32.976 112.46 32.976ZM114.246 32.976C114.135 32.976 114.049 32.9459 113.988 32.8855C113.928 32.8206 113.898 32.7324 113.898 32.6211V29.8369C113.898 29.7209 113.928 29.6327 113.988 29.5724C114.049 29.5121 114.132 29.4819 114.239 29.4819C114.35 29.4819 114.434 29.5121 114.49 29.5724C114.55 29.6327 114.58 29.7209 114.58 29.8369V30.4077L114.504 30.2545C114.596 30.0086 114.74 29.816 114.935 29.6768C115.13 29.5376 115.364 29.468 115.638 29.468C115.921 29.468 116.151 29.5353 116.327 29.6699C116.503 29.8044 116.624 30.0109 116.689 30.2893H116.592C116.68 30.0341 116.831 29.8346 117.044 29.6907C117.258 29.5423 117.506 29.468 117.789 29.468C118.049 29.468 118.262 29.5191 118.429 29.6211C118.596 29.7186 118.722 29.8694 118.805 30.0736C118.889 30.2731 118.93 30.526 118.93 30.8322V32.6211C118.93 32.7324 118.898 32.8206 118.833 32.8855C118.773 32.9459 118.687 32.976 118.575 32.976C118.464 32.976 118.378 32.9459 118.318 32.8855C118.257 32.8206 118.227 32.7324 118.227 32.6211V30.867C118.227 30.5793 118.176 30.3682 118.074 30.2337C117.977 30.0991 117.814 30.0318 117.587 30.0318C117.332 30.0318 117.13 30.12 116.981 30.2963C116.833 30.4726 116.759 30.7162 116.759 31.0271V32.6211C116.759 32.7324 116.729 32.8206 116.668 32.8855C116.608 32.9459 116.522 32.976 116.411 32.976C116.299 32.976 116.211 32.9459 116.146 32.8855C116.086 32.8206 116.056 32.7324 116.056 32.6211V30.867C116.056 30.5793 116.007 30.3682 115.91 30.2337C115.812 30.0991 115.65 30.0318 115.422 30.0318C115.167 30.0318 114.965 30.12 114.817 30.2963C114.673 30.4726 114.601 30.7162 114.601 31.0271V32.6211C114.601 32.8577 114.483 32.976 114.246 32.976ZM120.999 32.99C120.762 32.99 120.549 32.9435 120.359 32.8507C120.173 32.7579 120.027 32.6327 119.92 32.4749C119.813 32.3171 119.76 32.1385 119.76 31.9389C119.76 31.6884 119.823 31.4912 119.948 31.3473C120.078 31.1988 120.289 31.0944 120.581 31.0341C120.878 30.9691 121.277 30.9366 121.779 30.9366H122.106V31.3682H121.786C121.451 31.3682 121.187 31.3844 120.992 31.4169C120.797 31.4494 120.658 31.5051 120.574 31.584C120.496 31.6582 120.456 31.7626 120.456 31.8972C120.456 32.0735 120.516 32.2174 120.637 32.3287C120.758 32.4354 120.925 32.4888 121.138 32.4888C121.31 32.4888 121.461 32.4494 121.591 32.3705C121.721 32.287 121.823 32.1756 121.897 32.0364C121.976 31.8972 122.015 31.7371 122.015 31.5561V30.7557C122.015 30.4912 121.96 30.3009 121.848 30.1849C121.737 30.0689 121.554 30.0109 121.298 30.0109C121.15 30.0109 120.994 30.0295 120.832 30.0666C120.674 30.1037 120.509 30.1664 120.338 30.2545C120.259 30.2917 120.192 30.3033 120.136 30.2893C120.08 30.2754 120.036 30.2453 120.004 30.1988C119.971 30.1478 119.953 30.0944 119.948 30.0388C119.948 29.9784 119.962 29.9204 119.99 29.8648C120.022 29.8091 120.076 29.7673 120.15 29.7395C120.354 29.642 120.556 29.5724 120.755 29.5307C120.955 29.4889 121.143 29.468 121.319 29.468C121.63 29.468 121.885 29.5167 122.085 29.6142C122.289 29.7116 122.44 29.8601 122.537 30.0596C122.635 30.2592 122.683 30.5167 122.683 30.8322V32.6211C122.683 32.7324 122.656 32.8206 122.6 32.8855C122.544 32.9459 122.463 32.976 122.356 32.976C122.254 32.976 122.173 32.9459 122.113 32.8855C122.052 32.8206 122.022 32.7324 122.022 32.6211V32.1686H122.085C122.048 32.3403 121.978 32.4888 121.876 32.6141C121.779 32.7347 121.656 32.8275 121.507 32.8925C121.359 32.9575 121.189 32.99 120.999 32.99ZM125.19 34.2428C124.939 34.2428 124.696 34.2173 124.459 34.1662C124.227 34.1152 124.016 34.0317 123.826 33.9157C123.756 33.8786 123.71 33.8322 123.686 33.7765C123.663 33.7254 123.656 33.6721 123.666 33.6164C123.68 33.5607 123.705 33.512 123.742 33.4702C123.779 33.4285 123.823 33.4006 123.874 33.3867C123.93 33.3728 123.988 33.3821 124.048 33.4145C124.253 33.5259 124.445 33.6001 124.626 33.6373C124.812 33.679 124.983 33.6999 125.141 33.6999C125.466 33.6999 125.71 33.6164 125.872 33.4493C126.034 33.2869 126.116 33.0456 126.116 32.7255V32.0155H126.178C126.109 32.2707 125.963 32.4726 125.74 32.6211C125.517 32.7695 125.26 32.8438 124.967 32.8438C124.661 32.8438 124.394 32.7742 124.167 32.635C123.939 32.4911 123.763 32.2939 123.638 32.0433C123.512 31.7881 123.45 31.4912 123.45 31.1524C123.45 30.8972 123.485 30.6675 123.554 30.4633C123.628 30.2592 123.731 30.0828 123.86 29.9344C123.995 29.7859 124.155 29.6722 124.341 29.5933C124.531 29.5098 124.74 29.468 124.967 29.468C125.264 29.468 125.522 29.5423 125.74 29.6907C125.963 29.8392 126.106 30.0411 126.171 30.2963L126.102 30.4146V29.8369C126.102 29.7209 126.132 29.6327 126.192 29.5724C126.257 29.5121 126.343 29.4819 126.45 29.4819C126.561 29.4819 126.647 29.5121 126.707 29.5724C126.768 29.6327 126.798 29.7209 126.798 29.8369V32.6419C126.798 33.1709 126.661 33.57 126.387 33.8391C126.113 34.1082 125.714 34.2428 125.19 34.2428ZM125.134 32.2939C125.338 32.2939 125.512 32.2475 125.656 32.1547C125.8 32.0619 125.911 31.9297 125.99 31.758C126.069 31.5863 126.109 31.3844 126.109 31.1524C126.109 30.8044 126.021 30.5283 125.844 30.3241C125.672 30.12 125.436 30.0179 125.134 30.0179C124.935 30.0179 124.763 30.0643 124.619 30.1571C124.475 30.2499 124.362 30.3821 124.278 30.5538C124.199 30.7209 124.16 30.9204 124.16 31.1524C124.16 31.5051 124.248 31.7835 124.424 31.9877C124.601 32.1918 124.837 32.2939 125.134 32.2939ZM128.132 32.9691C128.021 32.9691 127.935 32.9366 127.875 32.8716C127.815 32.802 127.784 32.7069 127.784 32.5862V29.8717C127.784 29.7511 127.815 29.6583 127.875 29.5933C127.935 29.5283 128.021 29.4959 128.132 29.4959C128.244 29.4959 128.33 29.5283 128.39 29.5933C128.455 29.6583 128.487 29.7511 128.487 29.8717V32.5862C128.487 32.7069 128.457 32.802 128.397 32.8716C128.337 32.9366 128.248 32.9691 128.132 32.9691ZM128.132 28.772C127.993 28.772 127.884 28.7372 127.805 28.6676C127.731 28.598 127.694 28.5005 127.694 28.3752C127.694 28.2453 127.731 28.1479 127.805 28.0829C127.884 28.0133 127.993 27.9785 128.132 27.9785C128.272 27.9785 128.378 28.0133 128.453 28.0829C128.531 28.1479 128.571 28.2453 128.571 28.3752C128.571 28.5005 128.531 28.598 128.453 28.6676C128.378 28.7372 128.272 28.772 128.132 28.772ZM129.825 32.976C129.714 32.976 129.628 32.9459 129.567 32.8855C129.507 32.8206 129.477 32.7324 129.477 32.6211V29.8369C129.477 29.7209 129.507 29.6327 129.567 29.5724C129.628 29.5121 129.711 29.4819 129.818 29.4819C129.929 29.4819 130.013 29.5121 130.069 29.5724C130.129 29.6327 130.159 29.7209 130.159 29.8369V30.3798L130.082 30.2545C130.185 29.9947 130.345 29.7998 130.563 29.6699C130.781 29.5353 131.031 29.468 131.314 29.468C131.584 29.468 131.806 29.5191 131.983 29.6211C132.164 29.7186 132.298 29.8694 132.386 30.0736C132.474 30.2731 132.519 30.526 132.519 30.8322V32.6211C132.519 32.7324 132.488 32.8206 132.428 32.8855C132.368 32.9459 132.282 32.976 132.171 32.976C132.055 32.976 131.966 32.9459 131.906 32.8855C131.846 32.8206 131.816 32.7324 131.816 32.6211V30.874C131.816 30.5817 131.758 30.3682 131.642 30.2337C131.53 30.0991 131.354 30.0318 131.113 30.0318C130.83 30.0318 130.602 30.12 130.43 30.2963C130.263 30.4726 130.18 30.7093 130.18 31.0062V32.6211C130.18 32.8577 130.062 32.976 129.825 32.976ZM134.573 32.99C134.336 32.99 134.123 32.9435 133.933 32.8507C133.747 32.7579 133.601 32.6327 133.494 32.4749C133.387 32.3171 133.334 32.1385 133.334 31.9389C133.334 31.6884 133.397 31.4912 133.522 31.3473C133.652 31.1988 133.863 31.0944 134.155 31.0341C134.452 30.9691 134.851 30.9366 135.353 30.9366H135.68V31.3682H135.36C135.025 31.3682 134.761 31.3844 134.566 31.4169C134.371 31.4494 134.232 31.5051 134.148 31.584C134.07 31.6582 134.03 31.7626 134.03 31.8972C134.03 32.0735 134.09 32.2174 134.211 32.3287C134.332 32.4354 134.499 32.4888 134.712 32.4888C134.884 32.4888 135.035 32.4494 135.165 32.3705C135.295 32.287 135.397 32.1756 135.471 32.0364C135.55 31.8972 135.589 31.7371 135.589 31.5561V30.7557C135.589 30.4912 135.534 30.3009 135.422 30.1849C135.311 30.0689 135.128 30.0109 134.872 30.0109C134.724 30.0109 134.568 30.0295 134.406 30.0666C134.248 30.1037 134.084 30.1664 133.912 30.2545C133.833 30.2917 133.766 30.3033 133.71 30.2893C133.654 30.2754 133.61 30.2453 133.578 30.1988C133.545 30.1478 133.527 30.0944 133.522 30.0388C133.522 29.9784 133.536 29.9204 133.564 29.8648C133.596 29.8091 133.65 29.7673 133.724 29.7395C133.928 29.642 134.13 29.5724 134.329 29.5307C134.529 29.4889 134.717 29.468 134.893 29.468C135.204 29.468 135.459 29.5167 135.659 29.6142C135.863 29.7116 136.014 29.8601 136.111 30.0596C136.209 30.2592 136.257 30.5167 136.257 30.8322V32.6211C136.257 32.7324 136.23 32.8206 136.174 32.8855C136.118 32.9459 136.037 32.976 135.93 32.976C135.828 32.976 135.747 32.9459 135.687 32.8855C135.626 32.8206 135.596 32.7324 135.596 32.6211V32.1686H135.659C135.622 32.3403 135.552 32.4888 135.45 32.6141C135.353 32.7347 135.23 32.8275 135.081 32.8925C134.933 32.9575 134.763 32.99 134.573 32.99ZM138.673 32.99C138.395 32.99 138.161 32.9412 137.97 32.8438C137.78 32.7463 137.639 32.6025 137.546 32.4122C137.453 32.222 137.407 31.99 137.407 31.7162V30.0736H136.989C136.896 30.0736 136.824 30.0504 136.773 30.004C136.722 29.9529 136.697 29.8856 136.697 29.8021C136.697 29.7139 136.722 29.6467 136.773 29.6003C136.824 29.5539 136.896 29.5307 136.989 29.5307H137.407V28.8137C137.407 28.6977 137.437 28.6096 137.497 28.5492C137.562 28.4889 137.65 28.4588 137.762 28.4588C137.873 28.4588 137.959 28.4889 138.019 28.5492C138.08 28.6096 138.11 28.6977 138.11 28.8137V29.5307H138.924C139.017 29.5307 139.089 29.5539 139.14 29.6003C139.191 29.6467 139.216 29.7139 139.216 29.8021C139.216 29.8856 139.191 29.9529 139.14 30.004C139.089 30.0504 139.017 30.0736 138.924 30.0736H138.11V31.6605C138.11 31.9065 138.161 32.0921 138.263 32.2174C138.37 32.3426 138.541 32.4053 138.778 32.4053C138.861 32.4053 138.933 32.3983 138.994 32.3844C139.059 32.3658 139.112 32.3542 139.154 32.3496C139.205 32.3496 139.247 32.3682 139.279 32.4053C139.312 32.4378 139.328 32.5027 139.328 32.6002C139.328 32.6698 139.314 32.7347 139.286 32.7951C139.263 32.8554 139.219 32.8948 139.154 32.9134C139.098 32.9319 139.021 32.9482 138.924 32.9621C138.831 32.9807 138.748 32.99 138.673 32.99ZM140.177 32.9691C140.066 32.9691 139.98 32.9366 139.92 32.8716C139.859 32.802 139.829 32.7069 139.829 32.5862V29.8717C139.829 29.7511 139.859 29.6583 139.92 29.5933C139.98 29.5283 140.066 29.4959 140.177 29.4959C140.288 29.4959 140.374 29.5283 140.435 29.5933C140.5 29.6583 140.532 29.7511 140.532 29.8717V32.5862C140.532 32.7069 140.502 32.802 140.442 32.8716C140.381 32.9366 140.293 32.9691 140.177 32.9691ZM140.177 28.772C140.038 28.772 139.929 28.7372 139.85 28.6676C139.776 28.598 139.739 28.5005 139.739 28.3752C139.739 28.2453 139.776 28.1479 139.85 28.0829C139.929 28.0133 140.038 27.9785 140.177 27.9785C140.316 27.9785 140.423 28.0133 140.497 28.0829C140.576 28.1479 140.616 28.2453 140.616 28.3752C140.616 28.5005 140.576 28.598 140.497 28.6676C140.423 28.7372 140.316 28.772 140.177 28.772ZM142.997 32.99C142.654 32.99 142.357 32.918 142.106 32.7742C141.86 32.6303 141.668 32.4262 141.529 32.1617C141.389 31.8972 141.32 31.5863 141.32 31.229C141.32 30.9552 141.359 30.7116 141.438 30.4981C141.517 30.2847 141.628 30.1014 141.772 29.9483C141.921 29.7905 142.097 29.6722 142.301 29.5933C142.51 29.5098 142.742 29.468 142.997 29.468C143.336 29.468 143.628 29.5399 143.874 29.6838C144.125 29.8276 144.32 30.0318 144.459 30.2963C144.598 30.5561 144.668 30.867 144.668 31.229C144.668 31.4981 144.628 31.7417 144.549 31.9598C144.47 32.1779 144.357 32.3635 144.208 32.5166C144.064 32.6698 143.888 32.7881 143.679 32.8716C143.475 32.9505 143.248 32.99 142.997 32.99ZM142.997 32.447C143.187 32.447 143.354 32.4006 143.498 32.3078C143.642 32.215 143.754 32.0781 143.832 31.8972C143.916 31.7162 143.958 31.4935 143.958 31.229C143.958 30.8299 143.87 30.5283 143.693 30.3241C143.517 30.12 143.285 30.0179 142.997 30.0179C142.802 30.0179 142.633 30.0643 142.489 30.1571C142.345 30.2453 142.232 30.3798 142.148 30.5608C142.069 30.7418 142.03 30.9645 142.03 31.229C142.03 31.6234 142.118 31.925 142.294 32.1338C142.47 32.3426 142.705 32.447 142.997 32.447ZM145.805 32.976C145.694 32.976 145.608 32.9459 145.548 32.8855C145.487 32.8206 145.457 32.7324 145.457 32.6211V29.8369C145.457 29.7209 145.487 29.6327 145.548 29.5724C145.608 29.5121 145.691 29.4819 145.798 29.4819C145.91 29.4819 145.993 29.5121 146.049 29.5724C146.109 29.6327 146.139 29.7209 146.139 29.8369V30.3798L146.063 30.2545C146.165 29.9947 146.325 29.7998 146.543 29.6699C146.761 29.5353 147.012 29.468 147.295 29.468C147.564 29.468 147.787 29.5191 147.963 29.6211C148.144 29.7186 148.278 29.8694 148.367 30.0736C148.455 30.2731 148.499 30.526 148.499 30.8322V32.6211C148.499 32.7324 148.469 32.8206 148.408 32.8855C148.348 32.9459 148.262 32.976 148.151 32.976C148.035 32.976 147.947 32.9459 147.886 32.8855C147.826 32.8206 147.796 32.7324 147.796 32.6211V30.874C147.796 30.5817 147.738 30.3682 147.622 30.2337C147.51 30.0991 147.334 30.0318 147.093 30.0318C146.81 30.0318 146.582 30.12 146.411 30.2963C146.244 30.4726 146.16 30.7093 146.16 31.0062V32.6211C146.16 32.8577 146.042 32.976 145.805 32.976Z" fill="#EEDF21"/>
<path d="M50.9498 22.1365V14.2518H52.5423V22.1365H50.9498ZM54.2125 22.1365V14.2518H55.8384L59.4801 19.5863V14.2518H61.0726V22.1365H59.4912L55.805 16.8578V22.1365H54.2125ZM64.4094 22.1365V15.733H62.0039V14.2518H68.4297V15.733H66.0131V22.1365H64.4094ZM67.8528 22.1365L70.9265 14.2518H72.7084L75.7487 22.1365H74.0336L73.5436 20.789H70.0579L69.5679 22.1365H67.8528ZM70.5702 19.3524H73.0425L71.8175 15.9446L70.5702 19.3524ZM76.5944 22.1365V14.2518H79.7683C80.1618 14.2518 80.5367 14.2927 80.8931 14.3744C81.2569 14.4486 81.5835 14.5785 81.8731 14.7641C82.1626 14.9497 82.3891 15.2096 82.5524 15.5437C82.7232 15.8704 82.8086 16.2898 82.8086 16.8021C82.8086 17.1808 82.7455 17.5223 82.6192 17.8267C82.493 18.1311 82.3074 18.3909 82.0624 18.6062C81.8174 18.8216 81.5241 18.9886 81.1826 19.1074L82.9311 22.1365H81.1381L79.6012 19.3635H78.1869V22.1365H76.5944ZM78.1869 17.9492H79.6569C79.8871 17.9492 80.0949 17.9306 80.2806 17.8935C80.4736 17.849 80.6369 17.7821 80.7706 17.693C80.9116 17.604 81.0193 17.4852 81.0935 17.3367C81.1752 17.1882 81.216 17.0063 81.216 16.791C81.2235 16.5163 81.1641 16.3047 81.0378 16.1562C80.9191 16.0003 80.7483 15.8926 80.5256 15.8332C80.3103 15.7664 80.0541 15.733 79.7571 15.733H78.1869V17.9492ZM84.2725 22.1365V14.2518H89.9521V15.733H85.865V17.5149H89.373V18.9403H85.865V20.6665H89.9521V22.1365H84.2725ZM97.3058 22.2256C96.7564 22.2256 96.2442 22.1402 95.769 21.9695C95.3013 21.7987 94.9078 21.5277 94.5885 21.1565C94.2767 20.7853 94.0799 20.3064 93.9983 19.7199H95.6242C95.691 19.9723 95.8135 20.1765 95.9917 20.3324C96.1699 20.4809 96.3815 20.5886 96.6265 20.6554C96.8789 20.7222 97.1425 20.7556 97.4172 20.7556C97.6251 20.7556 97.8293 20.7296 98.0297 20.6776C98.2302 20.6257 98.3935 20.5366 98.5197 20.4104C98.6534 20.2842 98.7202 20.1134 98.7202 19.8981C98.7202 19.7347 98.6831 19.6011 98.6088 19.4972C98.542 19.3932 98.4418 19.3116 98.3081 19.2522C98.1819 19.1853 98.026 19.126 97.8404 19.074C97.6845 19.0294 97.5211 18.9923 97.3504 18.9626C97.1871 18.9329 97.0237 18.8958 96.8604 18.8512C96.7045 18.8067 96.5523 18.7547 96.4038 18.6953C96.1217 18.6211 95.8507 18.532 95.5908 18.4281C95.331 18.3167 95.1008 18.1793 94.9003 18.016C94.6999 17.8452 94.5403 17.6337 94.4215 17.3812C94.3101 17.1288 94.2544 16.8244 94.2544 16.468C94.2544 16.082 94.3175 15.7553 94.4437 15.488C94.5774 15.2207 94.7519 15.0017 94.9672 14.8309C95.1899 14.6528 95.4349 14.5154 95.7022 14.4189C95.9769 14.3224 96.2516 14.2556 96.5263 14.2184C96.801 14.1813 97.0608 14.1628 97.3058 14.1628C97.8181 14.1628 98.2784 14.2518 98.6868 14.43C99.0951 14.6082 99.4292 14.8755 99.6891 15.2319C99.9489 15.5882 100.097 16.0374 100.135 16.5794H98.5865C98.5568 16.3567 98.4752 16.1748 98.3415 16.0337C98.2079 15.8926 98.0371 15.7887 97.8293 15.7219C97.6288 15.6551 97.4024 15.6216 97.1499 15.6216C96.9866 15.6216 96.827 15.6365 96.6711 15.6662C96.5151 15.6959 96.3741 15.7441 96.2479 15.811C96.1291 15.8704 96.0326 15.952 95.9583 16.056C95.8915 16.1599 95.8581 16.2861 95.8581 16.4346C95.8581 16.5831 95.8989 16.713 95.9806 16.8244C96.0623 16.9283 96.181 17.0211 96.337 17.1028C96.5003 17.1771 96.6896 17.2476 96.9049 17.3144C97.1277 17.3886 97.3615 17.448 97.6065 17.4926C97.8515 17.5371 98.0854 17.5965 98.3081 17.6708C98.5903 17.745 98.8538 17.8341 99.0988 17.9381C99.3438 18.0346 99.5591 18.1608 99.7447 18.3167C99.9304 18.4652 100.075 18.6582 100.179 18.8958C100.283 19.126 100.335 19.4118 100.335 19.7533C100.335 20.2062 100.25 20.5923 100.079 20.9115C99.9155 21.2233 99.6891 21.4758 99.3995 21.6688C99.1174 21.8618 98.7944 22.0029 98.4306 22.092C98.0668 22.1811 97.6919 22.2256 97.3058 22.2256ZM101.684 22.1365V14.2518H104.758C105.359 14.2518 105.883 14.3447 106.328 14.5303C106.781 14.7084 107.13 14.998 107.375 15.3989C107.62 15.7924 107.743 16.3195 107.743 16.9803C107.743 17.5965 107.605 18.1125 107.33 18.5283C107.063 18.9441 106.696 19.2559 106.228 19.4638C105.76 19.6642 105.229 19.7644 104.635 19.7644H103.277V22.1365H101.684ZM103.277 18.339H104.613C105.088 18.339 105.463 18.2276 105.738 18.0049C106.02 17.7747 106.161 17.4295 106.161 16.9692C106.161 16.5608 106.042 16.2527 105.805 16.0448C105.575 15.837 105.203 15.733 104.691 15.733H103.277V18.339ZM112.412 22.2256C111.603 22.2256 110.905 22.0549 110.319 21.7133C109.74 21.3718 109.294 20.9004 108.982 20.299C108.678 19.6902 108.526 18.9923 108.526 18.2053C108.526 17.4035 108.682 16.6982 108.993 16.0894C109.313 15.4806 109.766 15.0091 110.352 14.675C110.939 14.3335 111.636 14.1628 112.446 14.1628C113.248 14.1628 113.938 14.3298 114.517 14.6639C115.096 14.998 115.542 15.4657 115.854 16.0671C116.173 16.6685 116.332 17.3701 116.332 18.1719C116.332 18.9589 116.173 19.6605 115.854 20.2767C115.542 20.8855 115.093 21.3644 114.506 21.7133C113.927 22.0549 113.229 22.2256 112.412 22.2256ZM112.435 20.7333C112.969 20.7333 113.403 20.6108 113.738 20.3658C114.072 20.1208 114.313 19.8053 114.461 19.4192C114.617 19.0331 114.695 18.6285 114.695 18.2053C114.695 17.8935 114.651 17.5854 114.562 17.281C114.48 16.9766 114.35 16.7019 114.172 16.4569C113.994 16.2119 113.76 16.0188 113.47 15.8778C113.181 15.7293 112.832 15.6551 112.423 15.6551C111.896 15.6551 111.466 15.7776 111.132 16.0226C110.798 16.2601 110.549 16.572 110.385 16.958C110.23 17.3441 110.152 17.7562 110.152 18.1942C110.152 18.6322 110.23 19.0443 110.385 19.4304C110.549 19.8164 110.798 20.132 111.132 20.377C111.473 20.6145 111.907 20.7333 112.435 20.7333ZM117.573 22.1365V14.2518H120.747C121.141 14.2518 121.516 14.2927 121.872 14.3744C122.236 14.4486 122.563 14.5785 122.852 14.7641C123.142 14.9497 123.368 15.2096 123.531 15.5437C123.702 15.8704 123.788 16.2898 123.788 16.8021C123.788 17.1808 123.725 17.5223 123.598 17.8267C123.472 18.1311 123.286 18.3909 123.041 18.6062C122.796 18.8216 122.503 18.9886 122.162 19.1074L123.91 22.1365H122.117L120.58 19.3635H119.166V22.1365H117.573ZM119.166 17.9492H120.636C120.866 17.9492 121.074 17.9306 121.26 17.8935C121.453 17.849 121.616 17.7821 121.75 17.693C121.891 17.604 121.998 17.4852 122.073 17.3367C122.154 17.1882 122.195 17.0063 122.195 16.791C122.203 16.5163 122.143 16.3047 122.017 16.1562C121.898 16.0003 121.727 15.8926 121.505 15.8332C121.289 15.7664 121.033 15.733 120.736 15.733H119.166V17.9492ZM126.922 22.1365V15.733H124.517V14.2518H130.942V15.733H128.526V22.1365H126.922Z" fill="#010103"/>
</svg>
