<svg width="24" height="25" viewBox="0 0 24 25" fill="none" xmlns="http://www.w3.org/2000/svg">
<path d="M19.9001 2.92835C19.7392 2.51876 19.1616 2.51876 19.0007 2.92835L18.5703 4.02363C18.5212 4.14868 18.4226 4.24767 18.298 4.29699L17.2067 4.72896C16.7986 4.8905 16.7986 5.47016 17.2067 5.6317L18.298 6.06368C18.4226 6.113 18.5212 6.21198 18.5703 6.33703L19.0007 7.43231C19.1616 7.8419 19.7392 7.8419 19.9001 7.43232L20.3305 6.33703C20.3796 6.21198 20.4782 6.113 20.6028 6.06368L21.6941 5.6317C22.1022 5.47016 22.1022 4.8905 21.6941 4.72896L20.6028 4.29699C20.4782 4.24767 20.3796 4.14868 20.3305 4.02363L19.9001 2.92835Z" fill="#1C274C"/>
<path d="M16.0328 8.75082C15.8718 8.34124 15.2943 8.34124 15.1333 8.75082L14.9764 9.15017C14.9273 9.27522 14.8287 9.3742 14.7041 9.42352L14.3062 9.58102C13.8981 9.74256 13.8981 10.3222 14.3062 10.4838L14.7041 10.6412C14.8287 10.6905 14.9273 10.7895 14.9764 10.9146L15.1333 11.3139C15.2943 11.7235 15.8718 11.7235 16.0328 11.3139L16.1897 10.9146C16.2388 10.7895 16.3374 10.6905 16.462 10.6412L16.8599 10.4838C17.268 10.3222 17.268 9.74256 16.8599 9.58102L16.462 9.42352C16.3374 9.3742 16.2388 9.27522 16.1897 9.15017L16.0328 8.75082Z" fill="#1C274C"/>
<path opacity="0.5" d="M12 22.6212C17.5228 22.6212 22 18.144 22 12.6212C22 12.1585 21.3065 12.082 21.0672 12.478C19.9289 14.3618 17.8615 15.6212 15.5 15.6212C11.9101 15.6212 9 12.7111 9 9.12115C9 6.7596 10.2594 4.6922 12.1432 3.55391C12.5392 3.31462 12.4627 2.62115 12 2.62115C6.47715 2.62115 2 7.0983 2 12.6212C2 18.144 6.47715 22.6212 12 22.6212Z" fill="black"/>
</svg>
